<svg width="40" height="40" viewBox="0 0 40 40" fill="none" xmlns="http://www.w3.org/2000/svg">
<path d="M20 0C31.0284 0 40 8.97157 40 20C40 31.0284 31.0284 40 20 40C8.97157 40 0 31.0284 0 20C2.26293e-07 8.97157 8.97157 2.26279e-07 20 0ZM26.3936 7.65918C26.2906 7.64911 26.1883 7.66007 26.0898 7.69141C25.9914 7.72274 25.9015 7.77273 25.8232 7.83984C25.7449 7.9081 25.6826 7.98903 25.6367 8.08301C25.5864 8.18708 25.5596 8.3027 25.5596 8.41797C25.5596 8.55326 25.5959 8.68645 25.6641 8.80273C25.7323 8.91898 25.8307 9.01606 25.9492 9.08203C27.874 10.1451 29.4808 11.7081 30.5977 13.6016C31.7143 15.4949 32.3037 17.6578 32.3037 19.8555C32.3037 22.3745 31.5478 24.7966 30.1143 26.8613C28.7479 28.8307 26.8646 30.3448 24.6602 31.249V26.3057C25.017 26.1803 25.3305 25.9609 25.5732 25.6689C25.8327 25.3557 25.994 24.9761 26.041 24.5723C26.0879 24.1673 26.0163 23.7611 25.834 23.3975C25.6628 23.0551 25.4033 22.7681 25.0811 22.5645C25.3765 19.8515 26.2399 19.3166 26.8721 18.9238C27.248 18.6911 27.5721 18.4894 27.5723 17.9033V17.0684C27.5723 16.2033 26.7133 14.1842 24.793 11.626C22.1349 8.08527 20.6187 7.71387 20.2197 7.68457C20.0654 7.66891 19.9319 7.67674 19.7832 7.68457C19.3815 7.71367 17.8644 8.08412 15.2021 11.626C13.2786 14.1841 12.418 16.2033 12.418 17.0684V17.9004C12.418 18.4868 12.7431 18.6881 13.1191 18.9209C13.7514 19.3126 14.6147 19.8491 14.9102 22.5615C14.6205 22.7427 14.379 22.9945 14.209 23.292C14.0277 23.6109 13.9332 23.9739 13.9365 24.3398C13.9366 25.2047 14.5064 26.0013 15.332 26.3047V31.249C13.1276 30.3459 11.2454 28.8319 9.87793 26.8613C8.44552 24.7978 7.68652 22.3743 7.68652 19.8564C7.68664 15.3836 10.1245 11.2552 14.0479 9.08203C14.1943 9.00035 14.311 8.87207 14.377 8.71777C14.4429 8.56342 14.4565 8.38973 14.4141 8.22754C14.3727 8.06527 14.2756 7.91936 14.1436 7.81641C14.0116 7.71367 13.8473 7.65629 13.6797 7.65625H13.6787C13.5523 7.65625 13.427 7.68951 13.3174 7.75098C11.1553 8.94502 9.34823 10.7008 8.09375 12.8281C6.83945 14.9553 6.17748 17.3859 6.17969 19.8555C6.17969 23.0178 7.22035 25.9933 9.1875 28.4619C11.0978 30.8578 13.7793 32.5724 16.7393 33.292L16.8779 33.3262V27.4902C17.2214 27.6055 17.574 27.6999 17.9287 27.7715V34.5166C14.4406 34.0298 11.2376 32.3072 8.89648 29.6572C6.50853 26.9536 5.19238 23.4733 5.19238 19.8555C5.19128 18.0684 5.51047 16.3134 6.1416 14.6416C6.17621 14.5477 6.19183 14.4491 6.18848 14.3496C6.1851 14.2502 6.16144 14.153 6.12012 14.0625C6.07871 13.9719 6.02015 13.8905 5.94629 13.8223C5.87261 13.7543 5.78901 13.7016 5.69531 13.667C5.60145 13.6324 5.50276 13.6168 5.40332 13.6201C5.30372 13.6235 5.20588 13.6471 5.11523 13.6885C5.0246 13.7299 4.94423 13.7885 4.87598 13.8623C4.80789 13.936 4.75538 14.0207 4.7207 14.1133C3.8199 16.5203 3.49804 19.1437 3.79004 21.6973C4.08211 24.2509 4.98901 26.7331 6.41016 28.875C7.83137 31.0169 9.76758 32.8169 12.0068 34.0781C14.2471 35.3392 16.7884 36.0618 19.3564 36.167L19.4727 36.1719V27.9658C19.6976 27.9759 19.9821 27.9814 20 27.9814C20.0145 27.9803 20.2986 27.9759 20.5234 27.9658V36.1719L20.6396 36.167C23.2079 36.0584 25.749 35.3346 27.9883 34.0723C30.2274 32.8088 32.1618 31.01 33.583 28.8682C35.0041 26.7264 35.9118 24.2459 36.2051 21.6924C36.4994 19.1388 36.1796 16.5155 35.2822 14.1074C35.2207 13.9396 35.1007 13.7993 34.9463 13.7109L34.9414 13.71C34.7871 13.6228 34.6062 13.5908 34.4307 13.6221C34.255 13.6545 34.0956 13.7482 33.9814 13.8848C33.8676 14.0212 33.8057 14.1943 33.8057 14.373C33.8068 14.4637 33.8232 14.5524 33.8545 14.6396C34.4834 16.3115 34.8009 18.0664 34.7998 19.8535C34.7998 23.4703 33.4847 26.9516 31.0967 29.6553C28.7556 32.3063 25.5526 34.028 22.0645 34.5137V27.7686C22.4191 27.6958 22.7717 27.6016 23.1152 27.4863V33.3232L23.2539 33.29C26.2138 32.5705 28.8965 30.8559 30.8057 28.46C32.7729 25.9913 33.8135 23.0158 33.8135 19.8545C33.8168 17.3847 33.1566 14.9554 31.9033 12.8281C30.6511 10.6997 28.8465 8.94321 26.6855 7.74805C26.5939 7.69886 26.4964 7.66928 26.3936 7.65918ZM23.9336 23.125C24.0936 23.125 24.2535 23.1561 24.4023 23.2188C24.662 23.3262 24.8767 23.5221 25.0088 23.7705L25.0078 23.7695C25.1398 24.0168 25.1808 24.3058 25.126 24.5811C25.0699 24.8561 24.9201 25.1054 24.7031 25.2832C24.4861 25.461 24.2134 25.5585 23.9326 25.5586H23.9316C23.7706 25.5586 23.6136 25.5273 23.4648 25.4658C23.316 25.4032 23.1824 25.3134 23.0693 25.1992C22.8714 25.0001 22.7485 24.7367 22.7217 24.457C22.695 24.1786 22.7663 23.8957 22.9229 23.6631C23.0795 23.4303 23.3145 23.2564 23.583 23.1758C23.6972 23.1411 23.8161 23.125 23.9336 23.125ZM16.0703 23.1172C16.2301 23.1172 16.3865 23.1486 16.5352 23.21C16.684 23.2715 16.8176 23.3614 16.9307 23.4756C17.1286 23.6748 17.2524 23.9381 17.2793 24.2178C17.306 24.4974 17.2357 24.7789 17.0791 25.0127L17.0801 25.0137C16.9245 25.2476 16.6895 25.4203 16.4209 25.502C16.1526 25.5824 15.8619 25.5682 15.6025 25.4609C15.3429 25.3524 15.1262 25.1565 14.9941 24.9092C14.8621 24.6619 14.8202 24.3729 14.875 24.0977C14.9298 23.8212 15.0798 23.5715 15.2969 23.3936C15.5138 23.2158 15.7877 23.1173 16.0684 23.1172H16.0703Z" fill="#F1F1F1"/>
</svg>
